<?xml version="1.0" standalone="no"?>
<svg xmlns:xlink="http://www.w3.org/1999/xlink" id="wave" style="transform:rotate(0deg); transition: 0.3s" viewBox="0 0 1440 180" version="1.1" xmlns="http://www.w3.org/2000/svg"><defs><linearGradient id="sw-gradient-0" x1="0" x2="0" y1="1" y2="0"><stop stop-color="rgba(239, 26, 103, 1)" offset="0%"/><stop stop-color="rgba(239, 26, 103, 1)" offset="100%"/></linearGradient></defs><path style="transform:translate(0, 0px); opacity:1" fill="url(#sw-gradient-0)" d="M0,162L80,138C160,114,320,66,480,60C640,54,800,90,960,90C1120,90,1280,54,1440,54C1600,54,1760,90,1920,108C2080,126,2240,126,2400,111C2560,96,2720,66,2880,48C3040,30,3200,24,3360,24C3520,24,3680,30,3840,30C4000,30,4160,24,4320,21C4480,18,4640,18,4800,30C4960,42,5120,66,5280,66C5440,66,5600,42,5760,30C5920,18,6080,18,6240,42C6400,66,6560,114,6720,120C6880,126,7040,90,7200,69C7360,48,7520,42,7680,39C7840,36,8000,36,8160,33C8320,30,8480,24,8640,42C8800,60,8960,102,9120,108C9280,114,9440,84,9600,72C9760,60,9920,66,10080,63C10240,60,10400,48,10560,63C10720,78,10880,120,11040,120C11200,120,11360,78,11440,57L11520,36L11520,180L11440,180C11360,180,11200,180,11040,180C10880,180,10720,180,10560,180C10400,180,10240,180,10080,180C9920,180,9760,180,9600,180C9440,180,9280,180,9120,180C8960,180,8800,180,8640,180C8480,180,8320,180,8160,180C8000,180,7840,180,7680,180C7520,180,7360,180,7200,180C7040,180,6880,180,6720,180C6560,180,6400,180,6240,180C6080,180,5920,180,5760,180C5600,180,5440,180,5280,180C5120,180,4960,180,4800,180C4640,180,4480,180,4320,180C4160,180,4000,180,3840,180C3680,180,3520,180,3360,180C3200,180,3040,180,2880,180C2720,180,2560,180,2400,180C2240,180,2080,180,1920,180C1760,180,1600,180,1440,180C1280,180,1120,180,960,180C800,180,640,180,480,180C320,180,160,180,80,180L0,180Z"/></svg>